osim_states
version=1
nRows=4
nColumns=185
inDegrees=yes

# SIMM Motion File Header:
name osim_states
datacolumns 185
datarows 4
otherdata 1
range 0.10853760 0.10901405
endheader
time	platform_rx	platform_ry	platform_rz	platform_ty	pelvis_tilt	pelvis_list	pelvis_rotation	pelvis_tx	pelvis_ty	pelvis_tz	hip_flexion_r	hip_adduction_r	hip_rotation_r	knee_angle_r	patella_r_constrained_knee_angle	ankle_angle_r	subtalar_angle_r	mtp_angle_r	hip_flexion_l	hip_adduction_l	hip_rotation_l	knee_angle_l	patella_l_constrained_knee_angle	ankle_angle_l	subtalar_angle_l	mtp_angle_l	lumbar_extension	lumbar_bending	lumbar_rotation	arm_flex_r	arm_add_r	arm_rot_r	elbow_flex_r	pro_sup_r	wrist_flex_r	wrist_dev_r	arm_flex_l	arm_add_l	arm_rot_l	elbow_flex_l	pro_sup_l	wrist_flex_l	wrist_dev_l	platform_rx_u	platform_ry_u	platform_rz_u	platform_ty_u	pelvis_tilt_u	pelvis_list_u	pelvis_rotation_u	pelvis_tx_u	pelvis_ty_u	pelvis_tz_u	hip_flexion_r_u	hip_adduction_r_u	hip_rotation_r_u	knee_angle_r_u	patella_r_constrained_knee_angle_u	ankle_angle_r_u	subtalar_angle_r_u	mtp_angle_r_u	hip_flexion_l_u	hip_adduction_l_u	hip_rotation_l_u	knee_angle_l_u	patella_l_constrained_knee_angle_u	ankle_angle_l_u	subtalar_angle_l_u	mtp_angle_l_u	lumbar_extension_u	lumbar_bending_u	lumbar_rotation_u	arm_flex_r_u	arm_add_r_u	arm_rot_r_u	elbow_flex_r_u	pro_sup_r_u	wrist_flex_r_u	wrist_dev_r_u	arm_flex_l_u	arm_add_l_u	arm_rot_l_u	elbow_flex_l_u	pro_sup_l_u	wrist_flex_l_u	wrist_dev_l_u	glut_med1_r.activation	glut_med1_r.fiber_length	glut_med2_r.activation	glut_med2_r.fiber_length	glut_med3_r.activation	glut_med3_r.fiber_length	glut_min1_r.activation	glut_min1_r.fiber_length	glut_min2_r.activation	glut_min2_r.fiber_length	glut_min3_r.activation	glut_min3_r.fiber_length	semimem_r.activation	semimem_r.fiber_length	semiten_r.activation	semiten_r.fiber_length	bifemlh_r.activation	bifemlh_r.fiber_length	bifemsh_r.activation	bifemsh_r.fiber_length	sar_r.activation	sar_r.fiber_length	add_long_r.activation	add_long_r.fiber_length	add_brev_r.activation	add_brev_r.fiber_length	add_mag1_r.activation	add_mag1_r.fiber_length	add_mag2_r.activation	add_mag2_r.fiber_length	add_mag3_r.activation	add_mag3_r.fiber_length	tfl_r.activation	tfl_r.fiber_length	pect_r.activation	pect_r.fiber_length	grac_r.activation	grac_r.fiber_length	glut_max1_r.activation	glut_max1_r.fiber_length	glut_max2_r.activation	glut_max2_r.fiber_length	glut_max3_r.activation	glut_max3_r.fiber_length	iliacus_r.activation	iliacus_r.fiber_length	psoas_r.activation	psoas_r.fiber_length	quad_fem_r.activation	quad_fem_r.fiber_length	gem_r.activation	gem_r.fiber_length	peri_r.activation	peri_r.fiber_length	rect_fem_r.activation	rect_fem_r.fiber_length	vas_med_r.activation	vas_med_r.fiber_length	vas_int_r.activation	vas_int_r.fiber_length	vas_lat_r.activation	vas_lat_r.fiber_length	med_gas_r.activation	med_gas_r.fiber_length	lat_gas_r.activation	lat_gas_r.fiber_length	soleus_r.activation	soleus_r.fiber_length	tib_post_r.activation	tib_post_r.fiber_length	flex_dig_r.activation	flex_dig_r.fiber_length	flex_hal_r.activation	flex_hal_r.fiber_length	tib_ant_r.activation	tib_ant_r.fiber_length	per_brev_r.activation	per_brev_r.fiber_length	per_long_r.activation	per_long_r.fiber_length	per_tert_r.activation	per_tert_r.fiber_length	ext_dig_r.activation	ext_dig_r.fiber_length	ext_hal_r.activation	ext_hal_r.fiber_length	ercspn_r.activation	ercspn_r.fiber_length	ercspn_l.activation	ercspn_l.fiber_length	intobl_r.activation	intobl_r.fiber_length	intobl_l.activation	intobl_l.fiber_length	extobl_r.activation	extobl_r.fiber_length	extobl_l.activation	extobl_l.fiber_length
      0.10853760	     30.00000000	     -0.00000000	      0.00000000	      0.00000000	    -12.67517458	     -1.24024057	     -1.72092466	     -0.43971615	      0.88373487	      0.37946283	     52.11573544	      2.87802663	    -10.78589567	    -58.19020308	    -58.19020308	     17.53594702	     19.13919684	      0.00001318	     52.13915936	     -0.00000000	     -9.99811353	   -101.98648811	   -101.98648811	      6.49999992	      0.00000000	     -0.00000000	    -23.04159533	     -2.12817093	      7.96419214	      0.00000000	     -8.91003344	      0.00000000	     72.06682857	     46.23690339	     -0.00000000	      4.87402477	     -0.00000000	     -8.91003344	     -0.00000000	     72.06682857	     46.23690339	      0.00000000	      4.87402477	      0.00000000	     -0.00000000	      0.00000000	     -0.00000000	     21.97447389	   -119.78772789	   -240.99590815	     -0.35157076	     -1.20299746	      0.60220854	    155.63470992	    249.02079211	    -13.39275108	   -251.07419170	   -251.07419170	     16.55919388	      2.71158449	      0.00000000	     -0.00000000	      0.00000000	      0.00000000	     -0.00000000	      0.00000000	     -0.00000000	      0.00000000	     -0.00000000	   -213.61277657	      9.53618682	    239.86372246	      0.00000000	      0.00000000	      0.00000000	      0.00000000	     -0.00000000	     -0.00000000	     -0.00000000	     -0.00000000	     -0.00000000	     -0.00000000	      0.00000000	     -0.00000000	      0.00000000	      0.00000000	      0.17645043	      0.05890069	      0.21674274	      0.10142237	      0.37766565	      0.08404829	      0.10098435	      0.07647322	      0.17426119	      0.06768457	      0.36137220	      0.04787755	      0.13860489	      0.06929015	      0.44739458	      0.23375482	      0.32179205	      0.11610892	      0.17741938	      0.15543314	      0.01909197	      0.43509472	      0.01909197	      0.08902694	      0.01909197	      0.11979521	      0.04597521	      0.07429565	      0.06572166	      0.10883285	      0.11616321	      0.14755271	      0.02790780	      0.08570370	      0.01909197	      0.05445710	      0.01909197	      0.32981188	      0.16024314	      0.11343584	      0.16054630	      0.12743486	      0.14474670	      0.15252187	      0.01909197	      0.07169690	      0.01909197	      0.06508356	      0.16144352	      0.05209273	      0.37587411	      0.02343690	      0.59163142	      0.02868898	      0.24695169	      0.11190934	      0.37636263	      0.09591860	      0.43566619	      0.09800603	      0.39209359	      0.09150273	      0.35895881	      0.05264021	      0.36279625	      0.05623480	      0.60683685	      0.05476905	      0.76233788	      0.02807255	      0.76036151	      0.02299613	      0.77629638	      0.03281020	      0.13082000	      0.06732127	      0.97327968	      0.05856099	      0.97329764	      0.05369002	      0.60099165	      0.08018856	      0.60094820	      0.08713738	      0.56003840	      0.09128938	      0.17674781	      0.13556504	      0.26870837	      0.13593213	      0.01909197	      0.08851384	      0.02871812	      0.07064022	      0.06876462	      0.10672271	      0.04614553	      0.10960351
      0.10868089	     30.00000000	     -0.00000000	      0.00000000	      0.00000000	    -12.67203418	     -1.25740810	     -1.75545084	     -0.43976657	      0.88356256	      0.37954913	     52.13802829	      2.91371056	    -10.78783980	    -58.22615422	    -58.22615422	     17.53829611	     19.13955906	      0.00001318	     52.13915936	     -0.00000000	     -9.99811353	   -101.98648811	   -101.98648811	      6.49999992	      0.00000000	     -0.00000000	    -23.07220413	     -2.12682367	      7.99854742	      0.00000000	     -8.91003344	      0.00000000	     72.06682857	     46.23690339	     -0.00000000	      4.87402477	     -0.00000000	     -8.91003344	     -0.00000000	     72.06682857	     46.23690339	      0.00000000	      4.87402477	      0.00000000	     -0.00000000	      0.00000000	     -0.00000000	     21.85860006	   -119.83410023	   -240.91524150	     -0.35211971	     -1.20209877	      0.60238888	    155.52565992	    249.04983807	    -13.74302900	   -250.72658423	   -250.72658423	     16.22945125	      2.34626906	      0.00000000	     -0.00000000	      0.00000000	      0.00000000	     -0.00000000	      0.00000000	     -0.00000000	      0.00000000	     -0.00000000	   -213.62004700	      9.26869169	    239.66184013	      0.00000000	      0.00000000	      0.00000000	      0.00000000	     -0.00000000	     -0.00000000	     -0.00000000	     -0.00000000	     -0.00000000	     -0.00000000	     -0.00000000	     -0.00000000	      0.00000000	      0.00000000	      0.17638440	      0.05891274	      0.21671286	      0.10144469	      0.37778701	      0.08407612	      0.10092328	      0.07648088	      0.17429228	      0.06769828	      0.36162195	      0.04789649	      0.13843972	      0.06927802	      0.44728850	      0.23373395	      0.32174237	      0.11610377	      0.17726176	      0.15541337	      0.01907477	      0.43507698	      0.01907477	      0.08897570	      0.01907477	      0.11975785	      0.04590197	      0.07427210	      0.06560232	      0.10882000	      0.11595469	      0.14755897	      0.02787308	      0.08570307	      0.01907477	      0.05442348	      0.01907477	      0.32976852	      0.16013771	      0.11346140	      0.16041317	      0.12745943	      0.14447669	      0.15253048	      0.01907477	      0.07167675	      0.01907477	      0.06505999	      0.16114603	      0.05209674	      0.37581321	      0.02345001	      0.59166510	      0.02871179	      0.24706104	      0.11192304	      0.37656327	      0.09594066	      0.43588442	      0.09802914	      0.39230246	      0.09152465	      0.35889486	      0.05263384	      0.36272418	      0.05622760	      0.60698526	      0.05477256	      0.76114680	      0.02807117	      0.75918413	      0.02299454	      0.77500728	      0.03281012	      0.13059042	      0.06730452	      0.97347430	      0.05856400	      0.97349213	      0.05369289	      0.60098668	      0.08018672	      0.60094345	      0.08713288	      0.56003496	      0.09128444	      0.17695784	      0.13557460	      0.26884285	      0.13595809	      0.01907477	      0.08851088	      0.02868174	      0.07060090	      0.06863781	      0.10667053	      0.04607191	      0.10960239
      0.10882418	     30.00000000	     -0.00000000	      0.00000000	      0.00000000	    -12.66891042	     -1.27458227	     -1.78996542	     -0.43981706	      0.88339038	      0.37963546	     52.16030558	      2.94939856	    -10.78983413	    -58.26205561	    -58.26205561	     17.54059795	     19.13986883	      0.00001318	     52.13915936	     -0.00000000	     -9.99811353	   -101.98648811	   -101.98648811	      6.49999992	      0.00000000	     -0.00000000	    -23.10281390	     -2.12551472	      8.03287369	      0.00000000	     -8.91003344	      0.00000000	     72.06682857	     46.23690339	     -0.00000000	      4.87402477	     -0.00000000	     -8.91003344	     -0.00000000	     72.06682857	     46.23690339	      0.00000000	      4.87402477	      0.00000000	     -0.00000000	      0.00000000	     -0.00000000	     21.74229933	   -119.88042161	   -240.83398467	     -0.35266769	     -1.20120274	      0.60256822	    155.41753359	    249.07773668	    -14.09350226	   -250.37964205	   -250.37964205	     15.89925618	      1.97723039	      0.00000000	     -0.00000000	      0.00000000	      0.00000000	     -0.00000000	      0.00000000	     -0.00000000	      0.00000000	     -0.00000000	   -213.62639702	      9.00158584	    239.45901608	      0.00000000	      0.00000000	      0.00000000	      0.00000000	     -0.00000000	     -0.00000000	     -0.00000000	     -0.00000000	     -0.00000000	     -0.00000000	     -0.00000000	     -0.00000000	      0.00000000	      0.00000000	      0.17631928	      0.05892481	      0.21668353	      0.10146700	      0.37790822	      0.08410392	      0.10086286	      0.07648857	      0.17432829	      0.06771201	      0.36187284	      0.04791543	      0.13827457	      0.06926590	      0.44718237	      0.23371309	      0.32169267	      0.11609862	      0.17710426	      0.15539364	      0.01905760	      0.43505928	      0.01905760	      0.08892448	      0.01905760	      0.11972047	      0.04582890	      0.07424853	      0.06548328	      0.10880713	      0.11574652	      0.14756521	      0.02783842	      0.08570247	      0.01905760	      0.05438985	      0.01905760	      0.32972519	      0.16003232	      0.11348694	      0.16028008	      0.12748396	      0.14420704	      0.15253906	      0.01905760	      0.07165663	      0.01905760	      0.06503644	      0.16084831	      0.05210071	      0.37575061	      0.02346311	      0.59169684	      0.02873459	      0.24717022	      0.11193671	      0.37676373	      0.09596269	      0.43610247	      0.09805221	      0.39251112	      0.09154653	      0.35883065	      0.05262745	      0.36265185	      0.05622038	      0.60713304	      0.05477605	      0.75996398	      0.02806982	      0.75801490	      0.02299297	      0.77372731	      0.03281006	      0.13036129	      0.06728805	      0.97366748	      0.05856699	      0.97368518	      0.05369575	      0.60098174	      0.08018488	      0.60093873	      0.08712840	      0.56003154	      0.09127954	      0.17716772	      0.13558419	      0.26897653	      0.13598401	      0.01905760	      0.08850797	      0.02864544	      0.07056157	      0.06851132	      0.10661837	      0.04599845	      0.10960123
      0.10901405	     30.00000000	     -0.00000000	      0.00000000	      0.00000000	    -12.66479687	     -1.29734992	     -1.83568254	     -0.43988409	      0.88316242	      0.37974989	     52.18980138	      2.99669459	    -10.79255414	    -58.30955190	    -58.30955190	     17.54357537	     19.14019845	      0.00001318	     52.13915936	     -0.00000000	     -9.99811353	   -101.98648811	   -101.98648811	      6.49999992	      0.00000000	     -0.00000000	    -23.14337607	     -2.12383913	      8.07831441	      0.00000000	     -8.91003344	      0.00000000	     72.06682857	     46.23690339	     -0.00000000	      4.87402477	     -0.00000000	     -8.91003344	     -0.00000000	     72.06682857	     46.23690339	      0.00000000	      4.87402477	      0.00000000	     -0.00000000	      0.00000000	     -0.00000000	     21.58753503	   -119.94172167	   -240.72540638	     -0.35339233	     -1.20001952	      0.60280435	    155.27570338	    249.11297456	    -14.55753298	   -249.92103297	   -249.92103297	     15.46464859	      1.50077249	      0.00000000	     -0.00000000	      0.00000000	      0.00000000	     -0.00000000	      0.00000000	     -0.00000000	      0.00000000	     -0.00000000	   -213.63339912	      8.64824738	    239.18880779	      0.00000000	      0.00000000	      0.00000000	      0.00000000	     -0.00000000	     -0.00000000	     -0.00000000	     -0.00000000	     -0.00000000	     -0.00000000	     -0.00000000	     -0.00000000	      0.00000000	      0.00000000	      0.17623438	      0.05894083	      0.21664550	      0.10149656	      0.37806862	      0.08414074	      0.10078382	      0.07649879	      0.17438355	      0.06773021	      0.36220702	      0.04794053	      0.13805577	      0.06924986	      0.44704165	      0.23368548	      0.32162679	      0.11609179	      0.17689572	      0.15536753	      0.01903490	      0.43503587	      0.01903490	      0.08885661	      0.01903490	      0.11967093	      0.04573231	      0.07421726	      0.06532598	      0.10879004	      0.11547122	      0.14757345	      0.02779261	      0.08570171	      0.01903490	      0.05434528	      0.01903490	      0.32966783	      0.15989274	      0.11352075	      0.16010380	      0.12751643	      0.14385027	      0.15255036	      0.01903490	      0.07163001	      0.01903490	      0.06500527	      0.16045344	      0.05210592	      0.37566503	      0.02348043	      0.59173593	      0.02876480	      0.24731461	      0.11195481	      0.37702908	      0.09599181	      0.43639110	      0.09808272	      0.39278733	      0.09157546	      0.35874516	      0.05261897	      0.36255561	      0.05621079	      0.60732787	      0.05478065	      0.75840924	      0.02806807	      0.75647799	      0.02299093	      0.77204518	      0.03281002	      0.13005837	      0.06726665	      0.97392125	      0.05857093	      0.97393878	      0.05369953	      0.60097523	      0.08018247	      0.60093250	      0.08712251	      0.56002703	      0.09127310	      0.17744559	      0.13559692	      0.26915243	      0.13601832	      0.01903490	      0.08850421	      0.02859744	      0.07050947	      0.06834418	      0.10654927	      0.04590137	      0.10959963
